The Ocean's Trilogy is a series of three caper comedies directed by Steven Soderbergh and produced by Jerry Weintraub for Warner Bros., between 2001 and 2007. The first of the films, Ocean's Eleven (2001) was a remake of the 1960 film of the same name and was followed, due to an immense commercial success, by sequels Ocean's Twelve (2004) and Ocean's Thirteen (2007). The films combine well-known elements from heist films and con artist films, presented in a slick and cool style,with a notable absence of violence and gunplay,and an emphasis on humor and lightheartedness.

Samples of each movie avalible

Format : AVI
Format/Info : Audio Video Interleave
Format profile : OpenDML
File size : 2.98 GiB
Duration : 1h 56mn
Overall bit rate : 3 657 Kbps
Writing application : VirtualDubMod 1.5.10.2 (build 2540/release)
Writing library : VirtualDubMod build 2540/release

Video
ID : 0
Format : MPEG-4 Visual
Format profile : Advanced Simple@L5
Format settings, BVOP : 1
Format settings, QPel : No
Format settings, GMC : No warppoints
Format settings, Matrix : Default (MPEG)
Codec ID : XVID
Codec ID/Hint : XviD
Duration : 1h 56mn
Bit rate : 3 007 Kbps
Width : 1 264 pixels
Height : 528 pixels
Display aspect ratio : 2.40:1
Frame rate : 23.976 fps
Color space : YUV
Chroma subsampling : 4:2:0
Bit depth : 8 bits
Scan type : Progressive
Compression mode : Lossy
Bits/(Pixel*Frame) : 0.188
Stream size : 2.45 GiB (82%)
Writing library : XviD 1.2.1 (UTC 2008-12-04)

Audio
ID : 1
Format : AC-3
Format/Info : Audio Coding 3
Mode extension : CM (complete main)
Codec ID : 2000
Duration : 1h 56mn
Bit rate mode : Constant
Bit rate : 640 Kbps
Channel(s) : 6 channels
Channel positions : Front: L C R, Side: L R, LFE
Sampling rate : 48.0 KHz
Bit depth : 16 bits
Compression mode : Lossy
Stream size : 534 MiB (17%)
Alignment : Split accross interleaves
Interleave, duration : 42 ms (1.00 video frame)
Interleave, preload duration : 500 ms 
 
http://www.imdb.com/title/tt0240772/ 
http://www.imdb.com/title/tt0349903/ 
http://www.imdb.com/title/tt0496806/